<?xml version="1.0" encoding="utf-8"?>
<svg version="1.1" xmlns:xlink="http://www.w3.org/1999/xlink" width="20px" height="20px" xmlns="http://www.w3.org/2000/svg">
  <g transform="matrix(1 0 0 1 -624 -923 )">
    <path d="M 19.2882054403409 14.3627293110795  C 19.2882054403409 17.0870411576705  17.0802123863636 19.2971593110795  14.3537754403409 19.2971593110795  C 11.6295931605114 19.2971593110795  9.41947500710227 17.0870411789773  9.41947500710227 14.3627293110795  C 9.41947500710227 11.636421953125  11.6295931605114 9.42842889914773  14.3537754403409 9.42842889914773  C 17.0780872869318 9.42842889914773  19.2882054403409 11.636421953125  19.2882054403409 14.3627293110795  Z M 18.1271554545455 14.3627293110795  C 18.1271554545455 12.277136171875  16.4374767045455 10.5894788636364  14.3537754403409 10.5894788636364  C 12.2909622301136 10.5894788636364  10.6136193607955 12.2459595667614  10.5805249928977 14.3005834375  C 10.5452796164773 16.4236506889205  12.2909622301136 18.1693073721591  14.4160509019886 18.1361093465909  C 16.47057109375 18.1029112997159  18.1271554545455 16.425672109375  18.1271554545455 14.3627293110795  Z M 16.9661054900568 14.9433190980114  C 16.9661054900568 15.1029599005682  16.8375376349432 15.2335491974432  16.675875390625 15.2335491974432  L 13.7733152414773 15.2335491974432  C 13.6136744389205 15.2335491974432  13.4830851420455 15.1029599005682  13.4830851420455 14.9433190980114  L 13.4830851420455 12.3309890482955  C 13.4830851420455 12.0096860014205  13.7422422940341 11.7505288494318  14.0635453409091 11.7505288494318  C 14.3849779545455 11.7505288494318  14.6441351278409 12.0096860014205  14.6441351065341 12.3309890482955  L 14.6441351065341 13.7242697372159  C 14.6441351065341 13.9170049076705  14.7996294105114 14.0724992116477  14.9923645809659 14.0724992116477  L 16.3856452911932 14.0724992116477  C 16.7069483380682 14.0724992116477  16.9661054900568 14.3316563636364  16.9661054900568 14.6530889985795  L 16.9661054900568 14.9433190980114  Z M 16.3856452911932 6.52586875  L 16.3856452911932 2.46225861505682  C 16.3856452911932 2.14095556818182  16.1264881392045 1.88179841619318  15.8050555042614 2  L 2.45330474431818 2  C 2.13200169744318 1.88179841619318  1.87284454545455 2.14095556818182  2 2.46225861505682  L 2 17.0331623934659  C 1.87284454545455 17.6427000284091  2.36625386363636 18.1361093252841  2.97576556818182 18.1361093465909  L 7.67796484375 18.1361093465909  C 7.999267890625 18.1361093465909  8.25842504261363 18.3952664985795  8.25842504261363 18.7165695454545  C 8.25842504261363 19.0380021590909  7.999267890625 19.2971593323864  7.67796484375 19.2971593110795  L 1.87284454545455 19.2971593110795  C 1.23213030539773 19.2971593110795  0.711794559659091 18.7767199076705  1 18.1361093465909  L 1 1.88179841619318  C 0.711794559659091 1.23906275568182  1.23213030539773 0.720748451704545  1.87284454545455 1  L 16.3856452911932 1  C 17.0262558735795 0.720748451704545  17.5466952769886 1.23906275568182  17.5466952556818 1.88179841619318  L 17.5466952556818 6.52586875  C 17.5466952556818 6.847171796875  17.2875381036932 7.10632894886364  16.9661054900568 7.10632894886364  C 16.6448024431818 7.10632894886364  16.3856452911932 6.847171796875  16.3856452911932 6.52586875  Z M 4.111910546875 13.7822691122159  C 4.111910546875 13.6206068678977  4.315089765625 13.4920390127841  4.56393245738636 13.4920390127841  L 8.18168860085227 13.4920390127841  C 8.43053129261363 13.4920390127841  8.63371051136364 13.6226283096591  8.63371051136364 13.7822691122159  L 8.63371051136364 14.3627293110795  C 8.63371051136364 14.5223960440341  8.43053129261363 14.6530889985795  8.18168860085227 14.6530889985795  L 4.56393245738636 14.6530889985795  C 4.31306832386364 14.6530889985795  4.111910546875 14.5223960440341  4.111910546875 14.3627293110795  L 4.111910546875 13.7822691122159  Z M 4.42502421164772 6.52586875  C 4.25081877130682 6.52586875  4.11191052556818 6.395279453125  4.111910546875 6.23563865056818  L 4.111910546875 5.71732432528409  C 4.111910546875 5.52243814630682  4.27987029829545 5.36481876420455  4.48932111505682 5.36481876420455  L 13.68828578125 5.36481876420455  C 13.8956114985795 5.36481876420455  14.0656704403409 5.52243814630682  14.0656704190341 5.71732432528409  L 14.0656704190341 6.23563865056818  C 14.0656704190341 6.395279453125  13.9267881036932 6.52586875  13.7546818323864 6.52586875  L 4.42502421164772 6.52586875  Z M 4.50378207386364 10.5894788636364  C 4.28816331676136 10.5894788636364  4.111910546875 10.4588895667614  4.111910546875 10.2992487642045  L 4.111910546875 9.78093446022727  C 4.111910546875 9.58594462357955  4.32550788352273 9.42842889914773  4.58671236505682 9.42842889914773  L 9.99993520596591 9.42842889914773  C 10.2155798721591 9.42842889914773  10.3918326633523 9.55901819602273  10.3918326633523 9.71865899857955  L 10.3918326633523 10.2992487642045  C 10.3918326633523 10.4588895667614  10.2155798721591 10.5894788636364  9.99993520596591 10.5894788636364  L 4.50378207386364 10.5894788636364  Z " fill-rule="nonzero" fill="#3298ff" stroke="none" transform="matrix(1 0 0 1 624 923 )" />
  </g>
</svg>